<svg width="18" height="18" fill="none" xmlns="http://www.w3.org/2000/svg"><path d="M8.5 17.333a7.833 7.833 0 1 0 0-15.666 7.833 7.833 0 0 0 0 15.666z" fill="#ACD3F7"/><path d="M3 2.167a1.5 1.5 0 0 1 1.5-1.5h8a1.5 1.5 0 0 1 1.5 1.5V12.68a1.5 1.5 0 0 1-1.5 1.5h-8a1.5 1.5 0 0 1-1.5-1.5V2.167z" fill="#EEF6FF"/><path d="M8.182 8.77h-3.53c-.16 0-.319-.173-.319-.347 0-.173.16-.347.318-.347h3.531c.16 0 .318.174.318.347 0 .174-.08.348-.318.348zM8.182 10.16h-3.53c-.16 0-.319-.174-.319-.348s.16-.347.318-.347h3.531c.16 0 .318.173.318.347s-.08.347-.318.347z" fill="#22273C"/><path d="M4.333 11.924c0-.369.299-.667.667-.667h6.334a.667.667 0 0 1 0 1.333H5a.667.667 0 0 1-.667-.666zM8.091 2.735a1.984 1.984 0 0 0-1.793.158c-.117.074-.224.16-.322.255L4.649 4.452a1.046 1.046 0 0 0-.316.746c0 .58.486 1.056 1.075 1.056h.04a.786.786 0 1 1-.279-1.318l1.11-1.09.118-.116.04-.04.045-.044a2.542 2.542 0 0 1 2.04-.669 1.937 1.937 0 0 0-.431-.242zm4.498.515a1.088 1.088 0 0 0-1.4-.582l-.015.006a1.066 1.066 0 0 0-.342.226l-.812.797-.117.115a.365.365 0 0 1-.507 0L8.773 3.2a2.39 2.39 0 0 0-1.401.094c.316.006.618.132.841.352l1.078 1.058c.197.193.52.193.718 0l1.33-1.306a.816.816 0 0 1 1.327.303 1.077 1.077 0 0 0-.077-.451zm-.684.099a.634.634 0 0 0-.108.009.349.349 0 0 1 .048.537l-1.321 1.298-.008.009a2.543 2.543 0 0 1-2.027.678 1.978 1.978 0 0 0 1.99.195c.201-.093.385-.22.543-.376l1.29-1.265.04-.04.042-.044a.609.609 0 0 0 .138-.385.624.624 0 0 0-.627-.616zM9.637 5.553a1.233 1.233 0 0 1-.853-.352L7.71 4.15a.52.52 0 0 0-.363-.151.51.51 0 0 0-.36.146l-.316.31-.133.131-.309.304-.128.126-.212.209-.19.186-.037.037a.362.362 0 0 1-.552-.054.625.625 0 0 0 .686.728.631.631 0 0 0 .356-.16l.008-.008.008-.008.011-.01.35-.344.567-.557a.365.365 0 0 1 .504.002l.635.624a2.39 2.39 0 0 0 1.4-.107z" fill="#007AFF"/><path d="M14.333 11.257a3 3 0 1 0 0-6 3 3 0 0 0 0 6z" fill="#FF9800"/><path fill-rule="evenodd" clip-rule="evenodd" d="M14.072 9.408l1.75-1.732.003-.003a.351.351 0 0 0-.034-.471.304.304 0 0 0-.447.033l-1.523 1.46-.512-.554a.303.303 0 0 0-.452 0 .352.352 0 0 0 0 .473l.75.81c.06.065.142.1.236.1h.002a.31.31 0 0 0 .227-.116zm1.704-1.782a.603.603 0 0 1-.003.005l-1.75 1.732a.244.244 0 0 1-.18.094.245.245 0 0 1-.187-.079l-.75-.81.75.81c.047.051.11.08.186.08a.244.244 0 0 0 .18-.095l1.75-1.732.004-.005z" fill="#fff"/></svg>