<svg width="18" height="18" fill="none" xmlns="http://www.w3.org/2000/svg"><path d="M8.916 16.498a7.916 7.916 0 1 0 0-15.831 7.916 7.916 0 0 0 0 15.831z" fill="#ACD3F7"/><path d="M5.602 4.281c-.91 0-1.652.741-1.652 1.652v9.394l2.292-.24.463-4.825-.463-5.98h-.64z" fill="#22273C"/><path d="M6.243 4.281v10.085l4.021-.422.807-4.47-.807-5.193H6.243z" fill="#007AFF"/><path d="M14.088 4.28h-3.824v9.721l3.824-.397V4.28z" fill="#007AFF"/><path d="M5.979 14.002c-.74 0-1.34.599-1.34 1.339l.002.038c.02.722.611 1.3 1.338 1.3h4.285v-2.677H5.98zM13.016 15.38v-.001c.001-.562.498-1.02 1.072-1.02l-.66-.357h-3.164v2.678h3.354l.47-.28c-.575 0-1.072-.457-1.072-1.02z" fill="#EEF6FF"/><path fill-rule="evenodd" clip-rule="evenodd" d="M9.38 7.25a.376.376 0 1 1 0-.752h1.767a.376.376 0 1 1 0 .752H9.379zM12.374 8.509a.377.377 0 0 0-.376-.377h-3.47a.376.376 0 1 0 0 .753h3.47a.377.377 0 0 0 .376-.376z" fill="#EEF6FF"/><path d="M5.726 14.36h.516l.246-.407-.246-.35h-.516c-.98 0-1.776.797-1.776 1.776 0 .98.797 1.775 1.776 1.775h.516l.331-.377-.33-.378h-.517a1.02 1.02 0 0 1 0-2.04z" fill="#22273C"/><path d="M6.243 13.604v.756h4.021l.333-.358-.333-.399H6.243zM6.243 17.154h4.021l.431-.324-.43-.431H6.242v.755z" fill="#22273C"/><path d="M10.264 13.604h3.824v.756h-3.824v-.756zM14.088 17.155V16.4h-3.824v.755h3.824z" fill="#22273C"/><path d="M17.139 13.073a2.826 2.826 0 1 1-5.652 0 2.826 2.826 0 0 1 5.652 0z" fill="#FF9800"/><g clip-path="url(#clip0)"><path d="M12.82 13.26l1.307 1.309a.261.261 0 0 0 .087.054.261.261 0 0 0 .198 0 .261.261 0 0 0 .087-.054l1.307-1.31a.263.263 0 0 0-.371-.371l-.86.864v-1.987a.262.262 0 1 0-.523 0v1.987l-.86-.864a.26.26 0 0 0-.429.085.262.262 0 0 0 .057.287z" fill="#EEF6FF"/></g><defs><clipPath id="clip0"><path fill="#fff" transform="rotate(-180 8.255 7.635)" d="M0 0h4.396v4.396H0z"/></clipPath></defs></svg>