<svg width="18" height="18" fill="none" xmlns="http://www.w3.org/2000/svg"><path d="M8.873 17.333a7.539 7.539 0 1 0 0-15.078 7.539 7.539 0 0 0 0 15.078z" fill="#ACD3F7"/><path d="M16.823 4.252a3.586 3.586 0 1 1-7.171 0 3.586 3.586 0 0 1 7.171 0z" fill="#FF9800"/><path d="M12.632 4.91c-.045-.2-.246-.364-.328-.472a1.312 1.312 0 0 1-.145-1.332 1.24 1.24 0 0 1 .443-.52 1.16 1.16 0 0 1 1.278 0c.192.126.345.306.443.52a1.313 1.313 0 0 1-.145 1.332c-.083.108-.283.272-.328.472h-1.218z" fill="#EEF6FF"/><path d="M12.443 5.302c-.059-.263-.323-.478-.43-.62a1.722 1.722 0 0 1-.19-1.747c.128-.28.33-.516.58-.682A1.52 1.52 0 0 1 13.241 2c.297 0 .588.088.839.254.25.165.452.402.58.682a1.722 1.722 0 0 1-.19 1.747c-.108.141-.372.356-.43.619h-1.597zm1.585.412v.207c0 .11-.041.214-.115.291a.384.384 0 0 1-.278.121h-.787a.384.384 0 0 1-.279-.12.423.423 0 0 1-.115-.292v-.207h1.574zm-.553-2.22v-.827l-.885 1.24h.492v.825l.885-1.238h-.492z" fill="#EEF6FF"/><mask id="a" maskUnits="userSpaceOnUse" x="1" y="2" width="16" height="16"><path d="M8.873 17.333a7.539 7.539 0 1 0 0-15.078 7.539 7.539 0 0 0 0 15.078z" fill="#ACD3F7"/></mask><g mask="url(#a)"><path d="M11.654 18.667H-.986c-.376 0-.68-.292-.68-.651V9.65c0-.36.304-.651.68-.651h5.57c.376 0 .695.263.752.619l.002.009A.751.751 0 0 1 6.09 9h5.563c.375 0 .68.291.68.651v8.365c0 .36-.305.65-.68.65z" fill="#007AFF"/><path d="M4 9.415C4 8.633 3.323 8 2.487 8h-2.58c-.316 0-.574.24-.574.537v8.593c0 .296.258.537.575.537H4V9.415z" fill="#EEF6FF"/><path d="M3.873 8h-1.54c.807 0 1.46.633 1.46 1.415v8.252h1.54V9.415C5.333 8.633 4.68 8 3.873 8z" fill="#DDD"/><path d="M3.873 8h-1.54c.807 0 1.46.633 1.46 1.415v8.252h1.54V9.415C5.333 8.633 4.68 8 3.873 8z" fill="#D2E4F9"/><path d="M9.667 17.126V8.533a.537.537 0 0 0-.536-.537H6.747c-.78 0-1.545.634-1.545 1.415v8.252H9.13c.296 0 .536-.24.536-.537z" fill="#EEF6FF"/><path d="M10.46 8H9c.298 0 .54.24.54.537v8.593a.538.538 0 0 1-.54.537h1.46c.299 0 .54-.24.54-.537V8.537A.538.538 0 0 0 10.46 8z" fill="#EEF6FF"/><path d="M6.986 7.75v3.033c0 .128.154.192.246.103l.487-.478a.144.144 0 0 1 .202 0l.488.478c.091.09.245.025.245-.103V7.749a.198.198 0 0 0-.198-.198H7.185a.198.198 0 0 0-.199.198z" fill="#22273C"/></g></svg>