<svg width="18" height="18" fill="none" xmlns="http://www.w3.org/2000/svg"><path d="M9.058 17.117a7.392 7.392 0 1 0 0-14.784 7.392 7.392 0 0 0 0 14.784z" fill="#ACD3F7"/><path fill-rule="evenodd" clip-rule="evenodd" d="M9.046 17.117h.024a7.393 7.393 0 0 0 6.659-4.203v-2.406c0-.7-.567-1.266-1.266-1.266H3.495c-.7 0-1.266.567-1.266 1.266v2.05a7.394 7.394 0 0 0 6.817 4.56z" fill="#007AFF"/><path fill-rule="evenodd" clip-rule="evenodd" d="M14.041 15.185a7.365 7.365 0 0 1-4.983 1.932 7.367 7.367 0 0 1-5.141-2.082V8.028c0-.699.566-1.265 1.265-1.265h7.594c.699 0 1.265.566 1.265 1.265v7.157z" fill="#EEF6FF"/><path d="M5.323 7.888a.281.281 0 1 1-.563 0 .281.281 0 0 1 .563 0zM6.167 7.888a.281.281 0 1 1-.563 0 .281.281 0 0 1 .563 0zM7.01 7.888a.281.281 0 1 1-.562 0 .281.281 0 0 1 .562 0z" fill="#22273C"/><path d="M3.547 5.01L2.432 3.812 2 5.218l1.547-.208zM15.213 2.53l-1.115-1.197-.432 1.406 1.547-.208z" fill="#FF9800"/><path d="M15.459 5.229a.562.562 0 1 1-1.125 0 .562.562 0 0 1 1.125 0zM4.531 2.406a.563.563 0 1 1-1.125 0 .563.563 0 0 1 1.125 0z" fill="#22273C"/><path d="M5 10.666a1 1 0 0 1 1-1h6a1 1 0 0 1 1 1v2.5a1 1 0 0 1-1 1H6a1 1 0 0 1-1-1v-2.5z" fill="#FF9800"/><g clip-path="url(#clip0)"><path d="M8.43 13.022l1.458-.839a.313.313 0 0 0 0-.546l-1.459-.833a.311.311 0 0 0-.429.11.312.312 0 0 0-.043.157v1.679a.312.312 0 0 0 .472.272z" fill="#EEF6FF"/></g><path d="M11.76 3.38a2.714 2.714 0 1 1-5.427 0 2.714 2.714 0 0 1 5.427 0z" fill="#FF9800"/><path d="M7.797 3.513v.43c0 .111.063.215.165.269l.798.417c.095.05.21.05.306 0l.797-.417a.306.306 0 0 0 .166-.27v-.429l-.963.504a.329.329 0 0 1-.306 0l-.963-.504zm.963-1.476l-1.344.703a.15.15 0 0 0 0 .269l1.344.703c.095.05.21.05.306 0l1.281-.671v.903c0 .084.072.153.16.153.088 0 .16-.069.16-.153v-.98a.153.153 0 0 0-.084-.134l-1.517-.793a.337.337 0 0 0-.306 0z" fill="#EEF6FF"/><defs><clipPath id="clip0"><path fill="#fff" transform="translate(7.75 10.666)" d="M0 0h2.5v2.5H0z"/></clipPath></defs></svg>