<svg width="18" height="18" fill="none" xmlns="http://www.w3.org/2000/svg"><path d="M8.921 17.172a6.952 6.952 0 1 0 0-13.904 6.952 6.952 0 0 0 0 13.904z" fill="#ACD3F7"/><path d="M11.91 11.074H3.005c-.366 0-.671.183-.915.427a6.942 6.942 0 0 0 6.83 5.671c1.586 0 3.05-.549 4.208-1.402v-3.477c0-.67-.549-1.22-1.22-1.22z" fill="#007AFF"/><path d="M9.47 8.512H2.152a7.57 7.57 0 0 0-.183 1.647c0 3.903 3.11 7.013 6.952 7.013.61 0 1.22-.06 1.769-.244V9.732c0-.67-.55-1.22-1.22-1.22z" fill="#EEF6FF"/><path d="M6.719 11.646H3.803c-.133 0-.266-.156-.266-.313s.133-.313.266-.313H6.72c.133 0 .266.156.266.313s-.066.313-.266.313zM9.21 11.646H8.209c-.142 0-.284-.156-.284-.313s.142-.313.284-.313h1c.142 0 .284.156.284.313s-.071.313-.283.313zM6.718 13.214H3.803c-.134 0-.267-.157-.267-.314 0-.156.133-.313.267-.313h2.915c.133 0 .267.157.267.313 0 .157-.067.314-.267.314zM9.21 13.214H8.209c-.142 0-.284-.157-.284-.314 0-.156.142-.313.284-.313h1c.142 0 .284.157.284.313 0 .157-.071.314-.283.314z" fill="#22273C"/><path d="M6.135 5.76a.305.305 0 0 1-.44-.272v-.553c-.764-.032-1.219-.823-1.219-2.13 0-1.354.462-2.131 1.267-2.131h5.383c.794 0 1.267.797 1.267 2.13 0 1.355-.461 2.132-1.267 2.132H7.29l-1.154.824z" fill="#FF9800"/><path d="M7.446 2.777a.371.371 0 1 1-.742 0 .371.371 0 0 1 .742 0zM8.93 2.777a.371.371 0 1 1-.742 0 .371.371 0 0 1 .742 0zM10.415 2.777a.371.371 0 1 1-.743 0 .371.371 0 0 1 .743 0z" fill="#EEF6FF"/><path d="M14.395 11.203a.305.305 0 0 0 .44-.272v-.553c.764-.032 1.218-.823 1.218-2.13 0-1.354-.461-2.131-1.266-2.131H9.403c-.793 0-1.266.796-1.266 2.13 0 1.355.461 2.132 1.266 2.132h3.838l1.154.824z" fill="#007AFF"/><path d="M13.083 8.22a.371.371 0 1 0 .743 0 .371.371 0 0 0-.743 0zM11.6 8.22a.371.371 0 1 0 .741 0 .371.371 0 0 0-.742 0zM10.115 8.22a.371.371 0 1 0 .742 0 .371.371 0 0 0-.742 0z" fill="#EEF6FF"/></svg>